<?xml version="1.0" standalone="no"?>
<!DOCTYPE svg PUBLIC "-//W3C//DTD SVG 20010904//EN"
 "http://www.w3.org/TR/2001/REC-SVG-20010904/DTD/svg10.dtd">
<svg version="1.0" xmlns="http://www.w3.org/2000/svg"
 width="700.000000pt" height="256.000000pt" viewBox="0 0 700.000000 256.000000"
 preserveAspectRatio="xMidYMid meet">
<metadata>
Created by potrace 1.15, written by Peter Selinger 2001-2017
</metadata>
<g transform="translate(0.000000,256.000000) scale(0.100000,-0.100000)"
fill="#000000" stroke="none">
<path d="M1300 1875 l0 -145 -110 0 -110 0 0 75 0 75 -141 0 -140 0 3 -37 c3
-32 7 -38 35 -45 37 -10 47 -21 38 -47 -16 -53 -177 -53 -205 -1 -6 10 -10 44
-10 74 l0 56 -46 0 -46 0 4 -74 c3 -63 7 -79 28 -101 37 -40 73 -55 144 -62
135 -12 216 33 216 123 0 32 4 44 15 44 12 0 15 -16 15 -81 l0 -80 293 3 c250
3 296 5 323 20 72 39 72 163 -1 196 -14 7 -68 12 -120 12 l-95 0 0 70 0 70
-45 0 -45 0 0 -145z"/>
<path d="M3020 1865 l0 -135 -220 0 c-176 0 -220 3 -220 13 0 19 40 54 70 62
21 5 25 12 25 45 0 44 0 44 -65 29 -81 -18 -120 -74 -120 -169 l0 -60 305 0
305 0 0 175 0 175 -40 0 -40 0 0 -135z"/>
<path d="M5890 1825 l0 -175 266 0 266 0 -4 70 c-6 119 -55 159 -199 168 l-89
5 0 -41 0 -40 76 -4 c69 -3 79 -6 100 -31 13 -16 24 -32 24 -38 0 -5 -72 -9
-175 -9 l-175 0 0 135 0 135 -45 0 -45 0 0 -175z"/>
<path d="M2290 1780 l0 -130 40 0 40 0 0 130 0 130 -40 0 -40 0 0 -130z"/>
<path d="M4842 1881 c-85 -14 -132 -75 -132 -173 l0 -58 571 0 572 0 -5 74
c-8 118 -46 155 -170 164 l-68 5 0 -82 0 -81 -140 0 c-127 0 -140 2 -140 18 0
50 55 78 100 50 16 -10 23 -9 45 12 l26 25 -25 22 c-82 70 -226 10 -226 -94
l0 -33 -135 0 -135 0 0 80 0 80 -47 -1 c-27 -1 -67 -5 -91 -8z"/>
<path d="M1763 1865 c-50 -22 -73 -68 -73 -147 l0 -68 77 0 c75 0 76 0 58 -20
-13 -14 -31 -20 -62 -20 -43 0 -43 0 -43 -35 l0 -35 53 0 c69 0 117 25 140 73
l19 37 154 0 154 0 0 115 0 115 -40 0 -40 0 0 -75 0 -75 -115 0 -115 0 0 75 0
75 -67 0 c-38 -1 -83 -7 -100 -15z"/>
<path d="M3180 1765 c0 -102 -2 -117 -20 -135 -11 -11 -31 -20 -45 -20 -22 0
-25 -4 -25 -36 l0 -37 45 6 c60 9 98 30 113 62 7 16 12 75 12 150 l0 125 -40
0 -40 0 0 -115z"/>
<path d="M3369 1860 c-45 -24 -69 -78 -69 -155 l0 -55 75 0 c42 0 75 -4 75
-10 0 -15 -36 -30 -74 -30 -35 0 -36 -1 -36 -36 l0 -37 63 5 c75 6 112 27 129
74 l12 34 128 0 128 0 0 115 0 115 -40 0 -40 0 0 -75 0 -75 -90 0 -90 0 0 75
0 75 -67 0 c-47 -1 -79 -7 -104 -20z"/>
<path d="M3924 1861 c-50 -23 -74 -74 -74 -156 l0 -55 75 0 c42 0 75 -4 75
-10 0 -15 -36 -30 -74 -30 -35 0 -36 -1 -36 -36 l0 -37 63 5 c75 6 112 27 129
74 l12 34 248 0 248 0 0 115 0 115 -45 0 -45 0 0 -75 0 -75 -85 0 -85 0 0 75
0 75 -45 0 -45 0 0 -75 0 -75 -75 0 -75 0 0 75 0 75 -62 0 c-40 0 -78 -7 -104
-19z"/>
<path d="M570 920 l0 -380 380 0 380 0 0 380 0 380 -380 0 -380 0 0 -380z"/>
<path d="M2950 920 c0 -331 2 -380 15 -380 13 0 15 49 15 380 0 331 -2 380
-15 380 -13 0 -15 -49 -15 -380z"/>
<path d="M1510 925 l0 -215 50 0 50 0 0 126 0 127 96 -127 97 -126 48 0 49 0
0 215 0 215 -55 0 -54 0 -3 -120 -3 -119 -90 119 -90 120 -47 0 -48 0 0 -215z"/>
<path d="M1930 1135 c0 -2 36 -61 80 -130 l80 -125 0 -85 0 -85 55 0 55 0 0
85 0 85 80 124 c44 69 80 127 80 130 0 3 -26 6 -58 6 l-57 0 -49 -80 c-55 -91
-44 -92 -110 18 l-37 62 -60 0 c-32 0 -59 -2 -59 -5z"/>
<path d="M2390 987 c0 -139 2 -157 23 -197 59 -118 262 -123 328 -7 22 39 24
55 27 200 l4 157 -56 0 -56 0 0 -148 c0 -142 -1 -149 -23 -170 -25 -23 -75
-29 -107 -12 -30 16 -40 66 -40 201 l0 129 -50 0 -50 0 0 -153z"/>
<path d="M3197 1008 c-30 -73 -71 -170 -91 -216 l-36 -83 57 3 56 3 16 43 15
42 87 0 87 0 18 -45 17 -45 53 0 c30 0 54 3 54 8 0 4 -40 99 -88 212 l-87 205
-51 3 -51 3 -56 -133z"/>
<path d="M3560 925 l0 -215 140 0 c151 0 183 8 214 52 9 13 16 43 16 71 0 41
-5 53 -29 76 -28 27 -28 27 -10 50 24 29 25 98 3 130 -29 40 -73 51 -209 51
l-125 0 0 -215z"/>
<path d="M3962 978 c3 -152 5 -166 27 -202 64 -103 265 -101 326 4 17 30 20
56 23 198 l4 162 -51 0 -51 0 0 -129 c0 -178 -14 -211 -93 -211 -23 0 -41 8
-58 26 -22 24 -24 33 -27 170 l-4 144 -50 0 -50 0 4 -162z"/>
<path d="M4520 925 l0 -215 123 0 c110 0 129 3 168 23 24 13 58 43 74 66 27
39 30 50 30 125 0 71 -3 87 -24 118 -53 76 -111 98 -263 98 l-108 0 0 -215z
m239 101 c19 -10 35 -31 46 -59 33 -87 -27 -167 -126 -167 l-49 0 0 126 0 127
49 -6 c28 -3 63 -13 80 -21z"/>
<path d="M4960 925 l0 -215 50 0 50 0 0 85 0 85 80 0 80 0 0 -85 0 -85 55 0
55 0 0 215 0 215 -55 0 -55 0 0 -85 0 -85 -80 0 -80 0 0 85 0 85 -50 0 -50 0
0 -215z"/>
<path d="M5541 1123 c-13 -26 -171 -401 -171 -407 0 -3 24 -6 53 -6 l53 0 15
43 16 42 86 3 86 3 20 -46 20 -45 55 0 55 0 -35 83 c-20 45 -61 142 -91 215
l-56 132 -48 0 c-36 0 -51 -5 -58 -17z"/>
<path d="M5870 924 l0 -215 149 3 c149 3 150 3 179 31 17 16 33 44 36 62 8 41
-14 99 -43 115 l-22 11 21 26 c25 32 27 99 4 132 -28 40 -73 51 -204 51 l-120
0 0 -216z"/>
<path d="M6270 925 l0 -215 55 0 55 0 0 215 0 215 -55 0 -55 0 0 -215z"/>
</g>
</svg>
