<?xml version="1.0" standalone="no"?>
<!DOCTYPE svg PUBLIC "-//W3C//DTD SVG 20010904//EN"
 "http://www.w3.org/TR/2001/REC-SVG-20010904/DTD/svg10.dtd">
<svg version="1.0" xmlns="http://www.w3.org/2000/svg"
 width="800.000000pt" height="223.000000pt" viewBox="0 0 800.000000 223.000000"
 preserveAspectRatio="xMidYMid meet">
<metadata>
Created by potrace 1.15, written by Peter Selinger 2001-2017
</metadata>
<g transform="translate(0.000000,223.000000) scale(0.100000,-0.100000)"
fill="#000000" stroke="none">
<path d="M680 2195 c-21 -23 -23 -29 -13 -55 13 -35 4 -39 -22 -10 -24 27 -30
26 -54 -14 -27 -43 -27 -99 0 -142 21 -34 28 -35 62 -6 9 8 17 10 17 5 0 -6
-7 -16 -15 -23 -19 -16 -19 -40 -1 -40 21 0 31 -21 15 -31 -20 -12 -106 -11
-130 2 -14 7 -18 16 -14 30 4 12 1 21 -9 25 -9 3 -14 10 -11 14 3 5 1 20 -5
34 -18 49 -77 20 -64 -31 3 -12 1 -24 -6 -28 -8 -5 -7 -12 5 -25 16 -17 15
-20 -4 -39 -26 -26 -81 -29 -81 -4 0 9 -12 31 -27 47 -16 17 -21 25 -13 19 29
-26 47 -15 53 31 9 62 -8 103 -55 132 -46 29 -72 28 -76 -3 -3 -21 -5 -21 -37
11 -42 42 -86 54 -120 32 -28 -18 -33 -57 -11 -75 15 -12 46 -5 46 11 0 6 6 5
15 -2 12 -10 15 -10 15 4 0 21 23 20 42 -1 8 -10 38 -73 67 -141 40 -93 50
-126 42 -136 -13 -16 -5 -42 15 -50 8 -3 45 1 82 8 202 43 481 45 675 6 54
-10 104 -17 112 -14 19 8 27 34 15 49 -10 12 10 78 45 145 7 14 21 43 30 65
30 66 31 68 48 79 13 8 20 7 27 -4 5 -8 12 -11 16 -8 3 4 13 0 21 -8 24 -24
48 -13 51 23 3 25 -2 35 -22 48 -35 23 -72 13 -118 -33 l-38 -36 0 27 c0 33
-21 35 -70 6 -52 -31 -60 -46 -60 -116 0 -54 3 -63 18 -63 10 0 23 5 30 12 7
7 12 8 12 4 0 -4 -11 -17 -25 -28 -14 -11 -25 -28 -25 -39 0 -27 -53 -26 -82
3 -20 20 -20 22 -3 34 15 11 16 16 6 28 -7 8 -10 23 -7 34 3 10 0 27 -8 38
-12 15 -18 17 -33 8 -10 -6 -20 -22 -21 -35 -2 -13 -11 -29 -20 -36 -14 -10
-15 -14 -3 -22 39 -26 -107 -58 -148 -32 -16 10 -6 31 15 31 18 0 18 24 -1 40
-8 7 -15 17 -15 23 0 5 8 3 18 -5 34 -30 41 -29 62 4 26 43 26 102 -1 144 -24
40 -30 41 -54 14 -26 -29 -36 -25 -20 7 13 26 13 29 -12 55 -36 38 -90 39
-123 3z"/>
<path d="M7833 1751 c-34 -21 -53 -68 -53 -128 0 -30 -3 -33 -30 -33 -23 0
-30 -4 -30 -20 0 -16 7 -20 30 -20 l31 0 -3 -132 -3 -133 -27 -3 c-20 -2 -28
-9 -28 -23 0 -18 8 -19 115 -19 107 0 115 1 115 19 0 16 -8 20 -37 23 l-38 3
-3 133 -3 132 46 0 c38 0 45 3 45 20 0 17 -7 20 -45 20 l-45 0 0 54 c0 54 16
86 44 86 18 0 36 -21 36 -42 0 -13 8 -18 26 -18 24 0 25 2 22 48 l-3 47 -65 3
c-51 2 -72 -2 -97 -17z"/>
<path d="M6573 1663 c-7 -30 -16 -42 -46 -56 -47 -24 -52 -57 -7 -57 l30 0 0
-115 c0 -173 25 -213 128 -202 59 6 92 38 92 89 0 34 -3 38 -25 38 -19 0 -25
-5 -25 -21 0 -33 -19 -59 -44 -59 -13 0 -27 7 -30 16 -3 9 -6 69 -6 135 l0
119 55 0 c48 0 55 2 55 20 0 18 -7 20 -54 20 l-55 0 -3 53 c-3 48 -5 52 -29
55 -24 3 -28 -1 -36 -35z"/>
<path d="M620 1670 c-83 -8 -258 -35 -292 -46 -10 -3 -18 -9 -18 -14 0 -5 -55
-11 -123 -12 l-122 -3 0 -480 c0 -534 0 -535 70 -684 51 -107 160 -214 275
-269 124 -59 195 -76 325 -75 197 0 355 63 485 193 87 86 131 162 160 276 19
72 20 112 20 561 l0 483 -114 0 c-87 0 -115 3 -119 14 -4 9 -52 20 -144 34
-169 26 -291 33 -403 22z m270 -147 c-25 -27 -66 -70 -92 -98 l-47 -50 -3 -98
c-2 -53 -3 -97 -2 -97 1 0 84 88 185 195 l183 195 94 0 94 0 -71 -77 c-39 -43
-132 -143 -208 -221 l-138 -144 -47 13 c-38 10 -55 11 -82 1 -26 -10 -40 -10
-59 -1 -19 8 -37 9 -66 2 -33 -9 -41 -8 -47 6 -4 9 -6 22 -5 30 2 9 -3 12 -13
8 -9 -4 -16 -2 -16 4 0 6 -4 7 -10 4 -5 -3 -10 -15 -10 -26 0 -22 -11 -24 -28
-7 -17 17 -15 31 3 24 8 -3 15 -3 15 0 0 2 -11 9 -25 14 -30 11 -42 37 -27 52
8 8 17 5 32 -13 17 -21 19 -21 14 -4 -6 16 -5 18 7 8 18 -17 48 -18 31 -1 -7
7 -12 18 -12 25 0 8 7 6 20 -7 11 -11 28 -20 37 -20 15 0 14 2 -3 15 -18 14
-18 14 9 15 32 0 35 15 7 30 -25 13 -26 30 -2 30 13 0 14 2 3 9 -9 6 -10 11
-2 15 20 12 13 35 -9 29 -27 -7 -25 11 3 25 12 6 17 11 11 11 -7 1 -9 12 -6
29 4 26 4 27 -12 7 -17 -20 -17 -20 -11 1 9 33 -21 26 -62 -15 -30 -30 -33
-36 -19 -46 9 -7 13 -15 9 -18 -12 -12 -50 -7 -63 8 -15 18 -6 45 15 45 9 0
13 5 10 10 -4 6 5 10 19 10 14 0 26 4 26 9 0 5 -10 7 -22 5 -13 -2 -17 -2 -10
2 20 9 3 24 -27 24 -22 0 -31 -7 -41 -30 -7 -17 -17 -33 -22 -36 -13 -9 -48
26 -48 48 0 19 -31 25 -65 12 -13 -6 -14 -9 -3 -16 9 -7 7 -8 -9 -5 -13 3 -23
1 -23 -4 0 -5 12 -9 26 -9 14 0 23 -4 20 -9 -3 -5 4 -11 15 -14 29 -8 22 -51
-9 -55 -13 -2 -31 -1 -40 3 -14 6 -13 9 8 17 l25 9 -37 31 c-21 16 -38 37 -39
46 0 13 -2 13 -9 -3 -5 -11 -9 -15 -9 -10 -1 6 -6 3 -11 -5 -9 -13 -11 -13
-20 0 -7 11 -9 6 -6 -20 2 -22 9 -36 20 -38 9 -2 16 -8 16 -14 0 -6 -10 -8
-25 -4 -18 5 -25 2 -25 -8 0 -8 6 -17 13 -19 9 -4 8 -8 -3 -17 -12 -10 -11
-11 8 -7 29 7 28 -7 -3 -31 -26 -21 -23 -32 9 -32 21 -1 21 -1 2 -15 -20 -15
-20 -15 1 -15 11 0 28 9 38 20 22 24 31 19 15 -9 -11 -21 3 -31 15 -11 10 17
25 11 19 -7 -4 -13 0 -11 12 5 22 29 34 28 34 -3 0 -18 -7 -26 -25 -31 -14 -3
-25 -10 -25 -15 0 -5 7 -6 15 -3 22 9 18 -14 -4 -26 -28 -14 -31 -13 -31 15 0
14 -4 25 -10 25 -5 0 -10 -7 -10 -15 0 -9 -7 -18 -15 -21 -21 -9 -19 -24 4
-24 11 0 29 -12 40 -27 l20 -28 1 33 c0 33 29 59 38 34 7 -21 21 -13 24 15 2
14 9 28 16 31 16 5 17 -89 0 -106 -17 -17 -41 -15 -34 3 3 9 0 15 -9 15 -8 0
-15 -7 -15 -15 0 -8 -7 -15 -15 -15 -8 0 -15 -4 -15 -10 0 -5 7 -7 15 -4 9 4
15 0 15 -9 0 -9 5 -19 12 -23 6 -4 8 -3 5 3 -4 6 -1 15 6 20 19 16 47 23 47
13 0 -5 -9 -12 -20 -15 -11 -3 -20 -13 -20 -20 0 -9 6 -12 15 -8 9 3 25 -3 36
-12 19 -18 20 -18 33 0 8 11 20 16 30 12 13 -5 16 -21 16 -82 l0 -75 -86 0
-85 0 -94 -97 -94 -98 -1 448 0 447 422 0 422 0 -44 -47z m490 -170 l-1 -98
-171 -180 -170 -180 87 -3 88 -3 84 88 83 88 -3 -230 c-3 -221 -4 -233 -31
-310 -88 -255 -324 -415 -610 -415 -83 0 -198 18 -213 34 -3 3 40 55 95 115
l102 109 0 94 0 93 -53 -55 c-29 -30 -104 -110 -167 -178 l-115 -122 -53 36
c-28 20 -52 41 -52 46 0 18 355 388 372 388 9 0 28 -11 42 -25 32 -32 51 -32
80 0 27 29 35 30 62 9 18 -15 18 -15 -8 -11 -31 5 -36 -4 -13 -23 13 -11 13
-15 3 -21 -10 -7 -8 -9 5 -9 15 0 16 -3 7 -20 -6 -11 -18 -20 -26 -20 -8 0
-12 -4 -9 -10 3 -6 18 -10 33 -10 26 -1 26 -1 8 -15 -17 -13 -17 -15 -3 -15 9
0 25 10 37 22 13 14 20 17 20 8 0 -7 -7 -22 -17 -32 -20 -23 -5 -23 27 -1 22
16 23 16 17 -3 -6 -15 -3 -14 13 5 16 19 24 21 33 12 16 -16 -3 -45 -32 -49
-12 -2 -21 -11 -21 -20 0 -14 2 -15 10 -2 5 8 12 11 16 7 9 -9 -15 -37 -33
-37 -7 0 -13 7 -11 16 2 12 -6 18 -26 21 -27 4 -28 3 -15 -13 11 -13 11 -18 2
-21 -14 -5 -18 -24 -5 -22 28 5 50 -4 60 -23 l11 -23 0 25 c1 15 6 31 13 38
14 14 42 16 33 2 -3 -6 -1 -10 4 -10 6 0 11 8 11 19 0 10 7 24 15 31 21 18 29
-7 18 -62 -7 -35 -13 -44 -32 -46 -18 -3 -22 0 -18 12 9 22 2 20 -30 -11 -17
-16 -21 -24 -10 -20 11 4 17 1 17 -8 0 -7 5 -17 10 -20 6 -4 9 -1 8 6 -2 6 12
18 30 25 17 8 32 10 32 5 0 -5 -9 -13 -20 -16 -22 -7 -28 -25 -8 -25 6 0 20
-7 30 -17 17 -15 19 -15 37 1 10 9 25 14 35 10 26 -10 18 15 -9 28 -35 16 -31
29 4 17 17 -6 32 -18 34 -27 4 -14 6 -13 12 5 5 15 12 20 23 16 10 -4 4 6 -11
20 -32 31 -39 33 -30 11 4 -12 0 -15 -18 -12 -19 2 -25 11 -31 48 -10 57 -4
77 17 60 8 -7 15 -21 15 -31 0 -11 5 -19 11 -19 5 0 7 5 4 10 -9 15 21 12 33
-2 5 -7 12 -24 15 -38 4 -25 4 -25 12 -2 6 19 28 28 58 23 11 -2 9 17 -3 24
-8 5 -7 11 1 21 11 13 8 15 -17 11 -20 -3 -28 -9 -26 -21 2 -9 -4 -16 -11 -16
-18 0 -42 28 -33 37 4 4 11 1 16 -7 8 -13 10 -12 10 3 0 10 -8 17 -19 17 -24
0 -43 23 -35 44 8 21 12 20 35 -6 16 -20 18 -20 12 -4 -6 19 -5 19 17 3 32
-22 47 -22 27 1 -27 29 -21 49 6 24 27 -26 57 -31 37 -7 -10 13 -9 15 8 15 28
0 37 17 13 25 -26 8 -36 35 -13 35 13 0 14 2 4 9 -10 6 -10 10 3 21 23 19 18
28 -12 23 -27 -4 -27 -4 -9 11 11 9 20 27 22 41 3 27 -5 32 -25 13 -10 -11
-11 -9 -5 6 5 13 4 17 -4 12 -8 -4 -12 0 -12 11 0 13 -6 9 -19 -14 -11 -17
-29 -34 -40 -38 -27 -8 -27 -35 0 -35 11 0 17 -4 14 -10 -9 -15 -61 -12 -75 5
-15 18 2 45 29 45 14 0 14 2 1 10 -13 8 -12 10 3 10 18 0 19 20 2 32 -23 17
-50 7 -65 -25 -8 -17 -22 -32 -30 -32 -13 0 -15 30 -18 196 l-2 196 175 186
c97 103 178 187 181 187 2 0 4 -44 4 -97z m-666 -239 c13 -13 16 -46 16 -205
l0 -189 -57 6 c-53 5 -64 3 -125 -30 -37 -20 -69 -36 -72 -36 -4 0 -6 92 -6
205 0 170 2 205 14 205 8 0 43 13 78 30 69 33 128 39 152 14z m184 -14 c35
-17 72 -30 83 -30 18 0 19 -10 19 -205 0 -157 -3 -205 -12 -205 -7 0 -44 16
-83 36 -61 31 -76 35 -117 29 l-48 -6 0 200 c0 150 3 201 13 204 32 13 87 4
145 -23z m-448 -264 c0 -13 -11 -34 -24 -47 -25 -24 -20 -49 10 -49 10 0 14
-12 14 -39 0 -35 -10 -49 -127 -175 -70 -75 -131 -136 -135 -136 -5 0 -22 28
-38 62 l-29 61 112 119 c62 65 134 143 161 173 26 30 50 55 52 55 2 0 4 -11 4
-24z"/>
<path d="M5775 1602 c-42 -7 -71 -24 -88 -50 l-16 -27 -1 38 c0 35 -2 37 -32
37 -93 0 -145 -30 -78 -44 l31 -6 -3 -132 -3 -133 -27 -3 c-20 -2 -28 -9 -28
-23 0 -19 6 -19 112 -17 96 3 113 5 116 20 2 13 -5 17 -35 20 l-38 3 -3 97
c-3 106 10 151 48 163 25 8 50 -10 50 -36 0 -15 7 -19 35 -19 l35 0 0 54 c0
51 -1 54 -27 58 -16 2 -37 2 -48 0z"/>
<path d="M6000 1598 c-61 -11 -95 -46 -95 -99 0 -51 28 -77 112 -109 71 -26
83 -36 83 -66 0 -27 -34 -54 -70 -54 -35 0 -47 10 -65 53 -12 30 -21 38 -38
35 -19 -3 -22 -10 -25 -51 -3 -42 -1 -48 22 -57 126 -48 266 3 266 97 0 51
-27 76 -107 104 -72 24 -98 48 -89 82 13 52 102 41 112 -13 5 -25 11 -30 35
-30 28 0 29 2 29 50 0 48 -1 49 -32 54 -69 11 -94 11 -138 4z"/>
<path d="M2975 1513 c-38 -48 -326 -402 -639 -788 l-569 -700 48 -3 c30 -2 52
2 60 10 22 24 1251 1543 1259 1556 5 9 -5 12 -41 12 l-48 0 -70 -87z"/>
<path d="M3568 1593 c-31 -5 -39 -33 -10 -33 36 0 42 -20 42 -145 0 -136 7
-156 65 -175 50 -16 110 -4 150 31 l34 30 3 -28 c3 -27 5 -28 66 -31 57 -3 62
-1 62 18 0 13 -7 20 -18 20 -37 0 -42 19 -42 172 l0 148 -32 0 c-59 0 -108
-12 -108 -26 0 -8 8 -14 18 -14 34 0 42 -21 42 -113 0 -88 -9 -121 -39 -144
-25 -19 -78 -16 -101 7 -18 18 -20 33 -20 155 l0 135 -42 -1 c-24 -1 -55 -4
-70 -6z"/>
<path d="M4058 1593 c-34 -5 -37 -29 -4 -37 29 -7 36 -37 36 -147 0 -98 -11
-129 -45 -129 -20 0 -26 -4 -23 -17 3 -16 16 -18 98 -18 81 0 95 2 98 17 2 11
-5 18 -20 20 -22 3 -23 7 -26 106 -3 102 -3 103 27 132 34 35 69 38 102 11 22
-17 24 -29 27 -114 4 -103 -6 -137 -39 -137 -14 0 -19 -5 -17 -17 3 -16 16
-18 98 -18 81 0 95 2 98 17 2 12 -5 17 -25 20 l-28 3 -5 125 c-7 170 -20 190
-126 190 -52 0 -59 -3 -90 -36 l-34 -35 0 35 c0 35 -1 36 -37 35 -21 -1 -50
-4 -65 -6z"/>
<path d="M4538 1593 c-37 -6 -36 -29 2 -37 l31 -6 -3 -132 -3 -133 -27 -3
c-20 -2 -28 -9 -28 -23 0 -17 8 -19 100 -19 93 0 100 1 100 20 0 13 -7 20 -20
20 -33 0 -40 33 -40 179 l0 141 -42 -1 c-24 -1 -55 -4 -70 -6z"/>
<path d="M5212 1580 c-50 -31 -75 -96 -70 -181 6 -113 57 -163 167 -163 89 0
142 34 153 99 2 17 -3 20 -32 20 -28 0 -36 -4 -38 -21 -5 -33 -39 -58 -79 -58
-48 0 -83 40 -83 94 l0 39 118 3 117 3 3 42 c4 52 -19 98 -61 123 -45 28 -150
28 -195 0z m150 -38 c10 -9 19 -33 20 -52 l3 -35 -77 -3 -78 -3 0 33 c1 75 80
111 132 60z"/>
<path d="M6278 1593 c-31 -5 -39 -33 -10 -33 36 0 42 -20 42 -140 0 -120 -6
-140 -42 -140 -11 0 -18 -7 -18 -20 0 -19 7 -20 100 -20 93 0 100 1 100 20 0
13 -7 20 -20 20 -33 0 -40 33 -40 179 l0 141 -42 -1 c-24 -1 -55 -4 -70 -6z"/>
<path d="M7402 1580 c-44 -27 -72 -89 -72 -162 0 -102 38 -158 121 -178 92
-22 180 17 208 93 18 46 13 148 -8 187 -30 57 -73 80 -150 80 -49 0 -75 -5
-99 -20z m161 -60 c27 -52 21 -191 -10 -221 -29 -29 -77 -29 -106 0 -19 18
-22 35 -25 109 -3 74 0 92 18 120 19 30 24 33 63 30 37 -3 44 -7 60 -38z"/>
<path d="M4730 1579 c0 -7 8 -17 17 -24 9 -7 42 -79 73 -161 l57 -149 43 0 43
0 57 149 c32 83 65 155 74 161 34 25 17 35 -59 35 -60 0 -75 -3 -75 -15 0 -9
9 -15 25 -15 14 0 25 -6 25 -12 0 -26 -74 -228 -80 -221 -13 14 -78 221 -72
227 3 3 16 6 29 6 14 0 23 6 23 15 0 12 -17 15 -90 15 -61 0 -90 -4 -90 -11z"/>
<path d="M6810 1575 c0 -8 7 -15 15 -15 18 0 37 -37 100 -190 l47 -115 -17
-50 c-19 -54 -46 -85 -76 -85 -10 0 -19 -7 -19 -15 0 -12 17 -15 95 -15 78 0
95 3 95 15 0 8 -8 15 -19 15 -49 0 -45 21 39 222 44 106 89 200 100 210 36 30
24 38 -55 38 -60 0 -75 -3 -75 -15 0 -8 9 -15 19 -15 11 0 22 -4 26 -9 5 -9
-64 -195 -71 -189 -8 9 -64 165 -64 180 0 11 8 18 20 18 11 0 20 7 20 15 0 12
-17 15 -90 15 -73 0 -90 -3 -90 -15z"/>
<path d="M3635 866 c-42 -18 -65 -47 -72 -90 -7 -48 13 -93 50 -113 l31 -15
-27 -15 c-33 -17 -38 -62 -7 -70 25 -7 26 -23 1 -23 -27 0 -71 -45 -71 -74 0
-34 17 -70 41 -84 57 -36 207 -33 264 4 36 23 49 66 35 108 -15 46 -31 54
-127 66 -42 6 -81 14 -86 19 -20 20 3 38 63 50 102 20 152 86 125 164 l-13 37
29 0 c23 0 29 4 29 23 0 21 -3 22 -118 24 -79 1 -127 -2 -147 -11z m119 -42
c20 -19 22 -113 4 -136 -43 -54 -108 -12 -108 68 0 30 6 54 17 66 20 22 66 24
87 2z m20 -315 c31 -24 35 -68 8 -92 -66 -60 -191 0 -152 73 23 42 101 53 144
19z"/>
<path d="M3987 873 c-39 -3 -48 -7 -45 -21 2 -10 14 -18 29 -20 32 -4 39 -29
39 -143 0 -98 -11 -129 -45 -129 -18 0 -25 -5 -25 -20 0 -19 7 -20 115 -20
107 0 115 1 115 19 0 16 -8 20 -37 23 l-38 3 -3 102 c-3 100 -2 103 26 134 33
37 66 34 76 -6 5 -20 13 -25 36 -25 30 0 30 1 30 55 l0 55 -56 0 c-52 0 -59
-3 -90 -36 l-34 -35 0 35 c0 31 -3 36 -22 34 -13 -1 -45 -3 -71 -5z"/>
<path d="M4380 861 c-95 -50 -109 -236 -24 -310 60 -53 169 -52 230 1 84 74
68 260 -26 310 -46 24 -134 24 -180 -1z m141 -40 c21 -17 24 -29 28 -106 4
-101 -8 -138 -51 -156 -37 -15 -75 1 -95 41 -18 35 -17 164 2 200 23 44 76 54
116 21z"/>
<path d="M4732 873 c-34 -3 -43 -8 -40 -21 2 -10 15 -18 31 -20 l28 -3 -3
-132 -3 -132 -27 -3 c-20 -2 -28 -9 -28 -23 0 -17 8 -19 100 -19 92 0 100 2
100 19 0 13 -8 21 -22 23 -22 3 -23 8 -26 104 -2 89 0 104 18 126 27 35 73 45
106 23 24 -16 25 -18 22 -133 -3 -113 -4 -117 -25 -120 -15 -2 -23 -10 -23
-23 0 -17 8 -19 100 -19 92 0 100 2 100 19 0 14 -8 21 -27 23 l-28 3 -5 125
c-3 69 -9 133 -14 143 -13 28 -60 47 -116 47 -44 0 -56 -4 -82 -30 -16 -16
-31 -30 -34 -30 -2 0 -4 14 -4 30 0 33 4 32 -98 23z"/>
<path d="M5223 873 c-34 -3 -43 -8 -43 -23 0 -13 8 -20 28 -22 l27 -3 0 -130
0 -130 -27 -3 c-20 -2 -28 -9 -28 -23 0 -18 8 -19 105 -19 98 0 105 1 105 20
0 15 -7 20 -24 20 -14 0 -28 5 -31 11 -4 5 -6 77 -6 160 l2 149 -33 -2 c-18
-1 -52 -3 -75 -5z"/>
<path d="M5468 873 c-30 -3 -38 -9 -38 -24 0 -13 7 -19 24 -19 29 0 36 -28 36
-141 0 -98 -11 -129 -45 -129 -18 0 -25 -5 -25 -20 0 -19 7 -20 100 -20 92 0
100 2 100 19 0 13 -8 21 -22 23 -22 3 -23 7 -23 110 0 94 2 110 20 128 31 30
76 35 105 12 22 -17 24 -29 28 -114 4 -98 -5 -138 -33 -138 -8 0 -15 -9 -15
-20 0 -19 7 -20 95 -20 87 0 95 2 95 19 0 14 -8 21 -27 23 l-28 3 -6 135 c-3
74 -7 136 -8 138 0 1 -16 11 -33 22 -22 13 -51 20 -86 20 -48 0 -58 -4 -88
-34 l-34 -34 0 34 c0 37 2 37 -92 27z"/>
<path d="M6003 865 c-40 -17 -73 -69 -73 -114 0 -27 9 -42 39 -71 l39 -38 -24
-11 c-31 -14 -34 -60 -4 -68 25 -7 26 -23 1 -23 -27 0 -71 -45 -71 -74 0 -34
17 -70 41 -84 38 -24 118 -33 188 -21 82 15 121 48 121 104 0 50 -34 82 -96
90 -102 12 -129 20 -132 37 -2 12 8 20 40 28 86 24 128 42 143 63 24 34 29 82
12 116 l-15 31 34 0 c30 0 35 3 32 21 -3 19 -11 20 -123 24 -88 3 -129 0 -152
-10z m121 -41 c20 -19 22 -113 4 -136 -21 -26 -53 -30 -78 -10 -30 24 -39 101
-16 137 19 29 66 34 90 9z m20 -315 c31 -24 35 -68 9 -92 -29 -25 -86 -31
-122 -12 -29 15 -32 20 -29 58 2 33 8 44 28 54 37 19 84 16 114 -8z"/>
<path d="M6414 866 c-54 -24 -79 -70 -82 -157 -5 -99 19 -151 81 -180 101 -45
237 1 237 81 0 16 -6 20 -35 20 -28 0 -35 -4 -35 -19 0 -25 -46 -61 -77 -61
-14 0 -37 13 -54 29 -23 23 -29 39 -29 70 l0 41 120 0 120 0 0 43 c0 57 -27
108 -70 129 -42 21 -132 23 -176 4z"/>
<path d="M6763 873 c-34 -3 -43 -8 -43 -23 0 -13 8 -20 28 -22 l27 -3 0 -130
0 -130 -27 -3 c-20 -2 -28 -9 -28 -23 0 -17 8 -19 100 -19 92 0 100 2 100 19
0 13 -8 21 -22 23 -22 3 -23 8 -26 106 l-3 103 31 31 c26 25 36 29 63 24 52
-10 58 -28 55 -151 -3 -105 -4 -110 -25 -113 -15 -2 -23 -10 -23 -23 0 -17 8
-19 100 -19 92 0 100 2 100 19 0 14 -8 21 -27 23 l-28 3 -5 128 -5 129 -33 29
c-27 25 -41 29 -88 29 -50 0 -59 -3 -90 -34 -37 -37 -44 -36 -44 6 0 30 5 29
-87 21z"/>
</g>
</svg>
